<?xml version="1.0" encoding="UTF-8" standalone="no"?>
<!-- Created with Inkscape (http://www.inkscape.org/) -->

<svg
   width="111.97836mm"
   height="84.034828mm"
   viewBox="0 0 111.97837 84.034827"
   version="1.1"
   id="svg5"
   xml:space="preserve"
   xmlns="http://www.w3.org/2000/svg"
   xmlns:svg="http://www.w3.org/2000/svg"><defs
     id="defs2" /><g
     id="layer1"
     transform="translate(-49.010823,-171.29809)"><g
       id="g915"><path
         id="path851"
         style="display:inline;opacity:1;fill:#000000;stroke-width:0.337017"
         d="m 82.854954,171.29809 c -3.080183,1.06242 -3.573627,9.10007 -1.452068,12.4499 2.121483,3.3498 8.821684,6.42044 8.821684,6.42044 0,0 0.458544,2.019 1.228267,3.90861 -3.864122,-1.23688 -6.253249,-3.57357 -6.253249,-3.57357 0,0 -1.128302,2.98914 1.451418,5.69507 1.518928,1.14268 6.25325,3.79671 6.25325,3.79671 l 1.854909,9.12975 c -9.107364,-5.38867 -27.836109,-15.14362 -41.267501,-13.24241 0.227112,-1.75855 4.406899,-6.21639 4.406899,-6.21639 0,0 -6.253249,-0.61406 -8.095663,7.09052 -3.684852,21.24192 4.623466,53.84396 43.29949,50.7402 0.958407,1.93887 9.5717,7.92542 11.89763,7.83499 2.32592,0.0904 10.93915,-5.89612 11.89762,-7.83499 38.67603,3.10376 46.9843,-29.49828 43.29948,-50.7402 -1.84239,-7.70458 -8.09565,-7.09052 -8.09565,-7.09052 0,0 4.17978,4.45785 4.40689,6.21639 -13.43138,-1.90121 -32.16012,7.85374 -41.2675,13.24241 l 1.85491,-9.12975 c 0,0 4.73433,-2.65403 6.25326,-3.79671 2.5797,-2.70593 1.45141,-5.69507 1.45141,-5.69507 0,0 -2.38908,2.33669 -6.25325,3.57357 0.76971,-1.88961 1.22826,-3.90861 1.22826,-3.90861 0,0 6.70016,-3.07064 8.8217,-6.42044 2.12155,-3.34983 1.6281,-11.38748 -1.45207,-12.4499 -2.0752,5.30225 -7.43173,10.80021 -13.84602,14.96239 -1.22065,5.94898 -3.57425,18.20773 -7.33472,27.46888 h -0.96432 -0.96431 c -3.76051,-9.26115 -6.114153,-21.5199 -7.334739,-27.46888 -6.414317,-4.16218 -11.770798,-9.66014 -13.846017,-14.96239 z m -31.76783,30.59485 c 5.616125,4.39713 16.310703,14.4093 15.074284,17.73159 -1.052819,0.003 -3.40572,-1.31713 -3.40572,-1.31713 0,0 -0.555336,3.41314 4.466143,7.48152 -1.295039,0.012 -3.424151,-0.75829 -3.424151,-0.75829 0,0 -1.192003,1.81406 3.647952,6.73178 -1.555511,-0.18481 -2.666528,-1.0117 -2.666528,-1.0117 0,0 0.817236,7.52301 7.132657,11.78705 C 53.921776,233.8091 50.518018,214.14953 51.087124,201.89294 Z m 107.825776,0 c 0.56912,12.25656 -2.83468,31.91616 -20.82463,40.64482 6.31541,-4.26404 7.13265,-11.78705 7.13265,-11.78705 0,0 -1.11101,0.82689 -2.66652,1.0117 4.83994,-4.9177 3.64795,-6.73178 3.64795,-6.73178 0,0 -2.12911,0.77028 -3.42415,0.75829 5.02146,-4.06837 4.46614,-7.48152 4.46614,-7.48152 0,0 -2.3529,1.31974 -3.40572,1.31713 -1.23641,-3.32228 9.45817,-13.33447 15.07428,-17.73159 z m -63.665984,22.61373 c 0.366895,0.002 0.682127,0.0287 0.920219,0.0625 3.699768,0.52637 8.032015,10.4119 3.633469,12.28533 -5.67059,-0.89256 -10.923882,-3.27422 -11.012307,-5.62265 -0.214069,-5.68478 3.946497,-6.69622 6.298009,-6.72455 0.05444,-6.6e-4 0.108194,-7.3e-4 0.16061,-6.6e-4 z m 19.522644,0 c 2.32081,-0.0112 6.66071,0.92201 6.44217,6.72521 -0.0884,2.34843 -5.34173,4.73009 -11.0123,5.62265 -4.39853,-1.87343 -0.0662,-11.75896 3.63347,-12.28533 0.21768,-0.031 0.50014,-0.0554 0.8274,-0.0612 0.0358,-6.4e-4 0.0724,-0.001 0.10926,-0.001 z m -10.11051,15.61338 c 0.2116,5.8e-4 0.34097,0.004 0.34097,0.004 0,0 3.67607,-0.0732 3.9165,0.47459 0.11439,0.26059 -0.1558,0.70857 -0.48841,1.00513 -2.02385,-0.0697 -2.54085,1.43123 -2.79158,2.52631 -0.33879,0.16515 -0.63651,0.13956 -0.63651,0.13956 0,0 -0.29772,0.0256 -0.63652,-0.13956 -0.25072,-1.09508 -0.76771,-2.59607 -2.79158,-2.52631 -0.3326,-0.29656 -0.6028,-0.74454 -0.48841,-1.00513 0.19536,-0.44507 2.65861,-0.48036 3.57554,-0.47788 z" /></g></g></svg>
